Simulation
nRows=19
nColumns=15
endheader
time  TH_x TH_y TH_z SC_y  SC_z  SC_x  AC_y  AC_z  AC_x  GH_y  GH_z  GH_yy  EL_x  PS_y
1.9499999999999993  0.000000  0.000000  0.000000  -29.60356521597745  8.224325208739497  24.678920847205294  62.9928748750109  10.763497705913093  -1.5703159422394404  48.215103407764445  60.06998816314261  -44.09028862305121  22.35582974731613  0.000000
1.9889999999999992  0.000000  0.000000  0.000000  -29.413786969787743  7.933128440152745  24.18790699264827  62.76721399775561  10.55953167772698  -2.2539267956848983  48.68027711711956  59.16457026985043  -43.64216831208698  22.57076536635743  0.000000
2.027999999999999  0.000000  0.000000  0.000000  -29.178073623173177  7.595595799008913  23.644174830028025  62.5245497416405  10.324297875167158  -2.9974257208599466  49.18716489650377  58.15346424786895  -43.238664857504645  22.775820258724483  0.000000
2.0669999999999993  0.000000  0.000000  0.000000  -28.901402183135623  7.214425517181437  23.05563500385528  62.27190634552614  10.057508722855248  -3.7840386572067395  49.7329241672759  57.04998995340887  -42.88266665043915  22.957602557156413  0.000000
2.1059999999999994  0.000000  0.000000  0.000000  -28.59088024957638  6.793440427119248  22.428479769305277  62.011092998097276  9.763763805824677  -4.5990803209045765  50.298257530058386  55.868703752066146  -42.5341240798489  23.104997116734342  0.000000
2.144999999999999  0.000000  0.000000  0.000000  -28.254404771072203  6.337460120035844  21.765964827427513  61.740341300198104  9.450845843521343  -5.429855358519588  50.85268617333263  54.62497356029034  -42.13151388983997  23.21045832764382  0.000000
2.1839999999999993  0.000000  0.000000  0.000000  -27.90090934410149  5.850699646635036  21.064792863546455  61.457068271962285  9.128698097657841  -6.264100515630934  51.36556424466259  53.335150290852916  -41.62376600251085  23.273826055427524  0.000000
2.2229999999999994  0.000000  0.000000  0.000000  -27.54225707270788  5.337483780807242  20.31339870616239  61.16074688552136  8.807450144684012  -7.086295582916291  51.81325128561175  52.01621597418017  -40.98894111548145  23.30519857331584  0.000000
2.261999999999999  0.000000  0.000000  0.000000  -27.196002632843822  4.803091151933362  19.492402677678733  60.855362126060996  8.495258834568906  -7.87346818504907  52.17758028033287  50.68456447135803  -40.228104291563334  23.324139484630066  0.000000
2.3009999999999993  0.000000  0.000000  0.000000  -26.885260162467418  4.256418025377602  18.57543487684943  60.55056504417159  8.195835827178525  -8.590200278210233  52.43319831240454  49.35313862614206  -39.3381458263019  23.354002128878054  0.000000
2.339999999999999  0.000000  0.000000  0.000000  -26.63204450107734  3.7110874444611617  17.533684159354312  60.257292417060796  7.9109311513211065  -9.191491048831095  52.53787912786201  48.02553356089406  -38.28599598015969  23.415137305251456  0.000000
2.378999999999999  0.000000  0.000000  0.000000  -26.448582009787195  3.183053520567021  16.34376849158392  59.9822255508685  7.646149968169915  -9.635017888308603  52.43665358652717  46.692258512988616  -37.0065227500479  23.522158411767013  0.000000
2.4179999999999993  0.000000  0.000000  0.000000  -26.33505164778367  2.6855082361454534  14.995196231136227  59.72364999630018  7.412902237795221  -9.893819098890514  52.078196929136226  45.334465037070224  -35.42531467267365  23.687191985070797  0.000000
2.456999999999999  0.000000  0.000000  0.000000  -26.28399647918025  2.224280783836645  13.494562969193655  59.469925492857264  7.227624519102794  -9.96498070694197  51.433152182724946  43.93372410351306  -33.48960560328596  23.924071599642794  0.000000
2.495999999999999  0.000000  0.000000  0.000000  -26.287007798914278  1.7994585878449314  11.863885564175588  59.2067909453195  7.10524249163339  -9.865675876801449  50.49321564356206  42.48003510715332  -31.18259470029176  24.245207903437063  0.000000
2.5349999999999993  0.000000  0.000000  0.000000  -26.338069193790087  1.4088833084564205  10.134938941740755  58.9243982294795  7.0522712867605675  -9.623117024969371  49.261876791394535  40.97548725172638  -28.522837651725276  24.655178537870228  0.000000
2.573999999999999  0.000000  0.000000  0.000000  -26.432296729151727  1.049608847162024  8.34459357910358  58.619066865883916  7.066721458684498  -9.267640138267913  47.753548618852626  39.43109746470956  -25.56125881320333  25.14490207528003  0.000000
2.612999999999999  0.000000  0.000000  0.000000  -26.563385737188995  0.7190575193288531  6.53137359721747  58.29306160963491  7.139318216917679  -8.828607551839907  45.99416121612613  37.86166156896333  -22.374828528670868  25.687957731983097  0.000000
2.6519999999999992  0.000000  0.000000  0.000000  -26.723285042281923  0.4153522431481553  4.733476733661588  57.951261725593  7.256922136246959  -8.333991505749756  44.025476104407495  36.28000740753524  -19.060284207375  26.243058597210585  0.000000
